<?xml version="1.0" encoding="UTF-8" standalone="no"?>
<svg
   version="1.1"
   id="Ebene_1"
   x="0px"
   y="0px"
   width="462.83069"
   height="100.777"
   viewBox="0 0 462.8307 100.77699"
   enable-background="new 0 0 891.381 302.875"
   xml:space="preserve"
   sodipodi:docname="logo_blue.svg"
   inkscape:version="1.1.2 (0a00cf5339, 2022-02-04)"
   xmlns:inkscape="http://www.inkscape.org/namespaces/inkscape"
   xmlns:sodipodi="http://sodipodi.sourceforge.net/DTD/sodipodi-0.dtd"
   xmlns="http://www.w3.org/2000/svg"
   xmlns:svg="http://www.w3.org/2000/svg"
   xmlns:rdf="http://www.w3.org/1999/02/22-rdf-syntax-ns#"
   xmlns:cc="http://creativecommons.org/ns#"
   xmlns:dc="http://purl.org/dc/elements/1.1/"><metadata
   id="metadata4157"><rdf:RDF><cc:Work
       rdf:about=""><dc:format>image/svg+xml</dc:format><dc:type
         rdf:resource="http://purl.org/dc/dcmitype/StillImage" /></cc:Work></rdf:RDF></metadata><defs
   id="defs4155" /><sodipodi:namedview
   pagecolor="#ffffff"
   bordercolor="#666666"
   borderopacity="1"
   objecttolerance="10"
   gridtolerance="10"
   guidetolerance="10"
   inkscape:pageopacity="0"
   inkscape:pageshadow="2"
   inkscape:window-width="1820"
   inkscape:window-height="1051"
   id="namedview4153"
   showgrid="true"
   inkscape:zoom="10.012551"
   inkscape:cx="164.39367"
   inkscape:cy="63.620149"
   inkscape:window-x="100"
   inkscape:window-y="0"
   inkscape:window-maximized="1"
   inkscape:current-layer="g180"
   inkscape:pagecheckerboard="0"
   inkscape:document-rotation="0"
   inkscape:snap-bbox="true"
   inkscape:object-paths="true"
   inkscape:snap-center="false"><inkscape:grid
     type="xygrid"
     id="grid846"
     originx="0"
     originy="0" /></sodipodi:namedview>

















<g
   id="g861"
   transform="translate(-0.5,-0.51315)"><path
     id="line4042"
     style="fill:#002864;stroke:#002864;stroke-width:2.4017;stroke-miterlimit:10"
     d="M 35.543991,60.840145 67.949997,75.855148" /><path
     id="line4044"
     style="fill:#002864;stroke:#002864;stroke-width:2.4017;stroke-miterlimit:10"
     d="M 8.2839985,71.140152 67.949997,75.855148" /><path
     id="line4046"
     style="fill:#002864;stroke:#002864;stroke-width:2.4017;stroke-miterlimit:10"
     d="m 58.934006,30.365154 13.182998,66.465" /><path
     id="line4048"
     style="fill:#002864;stroke:#002864;stroke-width:2.43951;stroke-miterlimit:10"
     d="M 58.916958,30.373323 28.292295,94.285912" /><path
     id="line4050"
     style="fill:#002864;stroke:#002864;stroke-width:2.4017;stroke-miterlimit:10"
     d="m 28.783998,93.287155 98.953992,-43.952" /><path
     id="line4052"
     style="fill:#002864;stroke:#002864;stroke-width:2.4017;stroke-miterlimit:10"
     d="M 58.934006,30.365154 127.73799,49.335155" /><path
     id="line4060"
     style="fill:#002864;stroke:#002864;stroke-width:2.60313;stroke-miterlimit:10"
     d="M 111.45447,4.0372596 127.2934,49.282295" /><path
     id="line4062"
     style="fill:#002864;stroke:#002864;stroke-width:2.36659;stroke-miterlimit:10"
     d="M 113.02834,4.2679896 67.932922,75.866554" /><path
     id="line4066"
     style="fill:#002864;stroke:#002864;stroke-width:2.4017;stroke-miterlimit:10"
     d="m 58.934006,30.365154 54.181994,66.465" /><path
     id="line4068"
     style="fill:#002864;stroke:#002864;stroke-width:2.32991;stroke-miterlimit:10"
     d="M 127.55548,49.333462 112.89791,93.922958" /><path
     id="line4074"
     style="fill:#002864;stroke:#002864;stroke-width:2.4017;stroke-miterlimit:10"
     d="M 67.949997,75.855148 113.116,96.830154" /></g>







<g
   style="fill:#002864;fill-opacity:1;stroke:none;stroke-opacity:1"
   transform="translate(-100.983,-100.929)"
   id="g4056">
	<path
   style="fill:#002864;fill-opacity:1;stroke:none;stroke-opacity:1"
   inkscape:connector-curvature="0"
   id="path4054"
   d="m 214.644,201.706 h -88.769 c -13.725,0 -24.892,-11.166 -24.892,-24.891 0,-13.726 11.167,-24.892 24.892,-24.892 1.977,0 3.922,0.233 5.821,0.695 3.414,-17.172 18.611,-29.995 36.577,-29.995 3.412,0 6.772,0.461 10.03,1.372 6.854,-13.72 20.711,-22.652 36.236,-23.066 l 0.207,7.727 c -13.656,0.363 -25.726,8.815 -30.751,21.532 l -1.413,3.577 -3.584,-1.397 c -3.431,-1.337 -7.039,-2.015 -10.726,-2.015 -15.593,0 -28.555,12.182 -29.508,27.732 l -0.351,5.719 -5.171,-2.467 c -2.343,-1.117 -4.822,-1.685 -7.369,-1.685 -9.463,0 -17.161,7.698 -17.161,17.162 0,9.463 7.698,17.161 17.161,17.161 h 88.769 v 7.731 z" />
</g><g
   id="g180"
   transform="translate(0,-1.2559737)"><path
     d="m 170.11688,1.9713675 h 8.21356 V 44.772665 h -8.21356 V 27.510898 h -14.66801 v 17.261767 h -8.20929 V 1.9713675 h 8.20929 V 19.293058 h 14.66801 z m 21.45629,0 a 1.3910422,1.3910422 0 0 0 -0.96731,0.428018 l -2.65368,2.6536751 a 1.2027164,1.2027164 0 0 0 -0.42801,0.9630291 V 40.727943 a 1.2069966,1.2069966 0 0 0 0.42801,0.967314 l 2.65368,2.653675 a 1.2069966,1.2069966 0 0 0 0.96731,0.428018 h 22.94149 v -8.213578 h -18.77692 v -9.052474 h 16.30301 v -8.21784 h -16.30301 v -9.112397 h 18.77692 V 1.9713675 Z M 226.8714,44.772665 h 19.08937 v -8.209293 h -14.9248 V 1.9713675 h -8.2093 V 40.727943 a 1.1813159,1.1813159 0 0 0 0.42802,0.967314 l 2.65368,2.653675 a 1.2069966,1.2069966 0 0 0 0.96731,0.428018 z M 307.31644,19.293058 V 1.9713675 h -8.20928 V 44.772665 h 8.20928 V 27.510898 h 14.66802 v 17.261767 h 8.21356 V 1.9713675 h -8.21356 V 19.293058 Z m 54.61875,13.268398 a 1.5451268,1.5451268 0 0 1 -0.42802,0.967314 l -2.59376,2.593751 a 1.4252833,1.4252833 0 0 1 -1.02723,0.428018 h -7.34042 a 1.2840389,1.2840389 0 0 1 -0.96731,-0.428018 l -2.59376,-2.593751 a 1.2840389,1.2840389 0 0 1 -0.42802,-0.967314 V 14.225382 a 1.2069966,1.2069966 0 0 1 0.42802,-0.967314 l 2.59376,-2.653675 a 1.5451268,1.5451268 0 0 1 0.96731,-0.428018 h 7.3661 a 1.7120519,1.7120519 0 0 1 1.02724,0.428018 l 2.59375,2.653675 a 1.4124429,1.4124429 0 0 1 0.42802,0.967314 z m 1.93033,-28.5570258 a 7.0194129,7.0194129 0 0 0 -4.82799,-2.0330627 h -9.59604 a 6.9038494,6.9038494 0 0 0 -4.88792,2.0501807 l -4.22877,4.228769 a 6.8482078,6.8482078 0 0 0 -1.99454,4.8493918 v 20.544625 a 6.8482078,6.8482078 0 0 0 1.99027,4.832263 l 4.22877,4.280123 a 6.7454846,6.7454846 0 0 0 4.89219,2.015945 h 9.59604 a 6.8482078,6.8482078 0 0 0 4.82799,-1.990256 l 4.28013,-4.280135 a 6.8482078,6.8482078 0 0 0 1.99882,-4.85794 V 13.099709 a 6.8482078,6.8482078 0 0 0 -1.99026,-4.8279886 l -4.28013,-4.2287691 z m 18.27616,40.7682348 h 19.43179 V 36.563372 H 386.30624 V 1.9713675 h -8.20929 V 40.727943 a 1.1898761,1.1898761 0 0 0 0.42802,0.967314 l 2.65796,2.653675 a 1.2069966,1.2069966 0 0 0 0.96731,0.428018 z m 28.67687,-34.592004 v 34.592004 h 8.20929 V 10.180661 h 11.34662 V 1.9713675 H 399.47621 V 10.180661 Z M 459.7704,2.3993855 a 1.4124429,1.4124429 0 0 0 -0.9716,-0.428018 h -23.96873 v 8.2092935 h 16.96643 l -17.74541,28.073368 v 2.473914 a 1.4252833,1.4252833 0 0 0 0.42801,0.967314 l 2.65796,2.653675 a 1.2069966,1.2069966 0 0 0 0.96731,0.428018 h 24.50802 V 36.563372 H 444.85414 L 462.83069,8.1261947 V 6.0118159 A 1.4295633,1.4295633 0 0 0 462.40267,5.0487868 Z M 281.76835,1.9713675 270.34897,21.749853 258.9253,1.9713675 h -7.85404 V 44.772665 h 8.20929 V 18.300067 l 7.37466,12.776182 a 1.3696415,1.3696415 0 0 0 1.1856,0.684822 h 5.02059 a 1.3653614,1.3653614 0 0 0 1.1856,-0.684822 l 7.31046,-12.656345 v 26.352761 h 8.20928 V 1.9713675 Z"
     class="cls-1"
     id="Helmholtz"
     inkscape:connector-curvature="0"
     style="fill:#002864;fill-opacity:1;stroke-width:0.428013" /><g
     aria-label="Cloud"
     id="text838"
     style="font-size:59.4965px;line-height:1.25;font-family:Inter;-inkscape-font-specification:'Inter, Normal';letter-spacing:0px;word-spacing:0px;stroke-width:1.48741"
     transform="translate(0,-1.7002543)"><path
       d="m 181.41996,73.278744 h -5.23975 q -0.46482,-2.260698 -1.62686,-3.972068 -1.14091,-1.711369 -2.7889,-2.87341 -1.62685,-1.183169 -3.61289,-1.774754 -1.98603,-0.591584 -4.14109,-0.591584 -3.92981,0 -7.12014,1.986034 -3.1692,1.986033 -5.0496,5.852461 -1.85926,3.866427 -1.85926,9.48648 0,5.620052 1.85926,9.48648 1.8804,3.866427 5.0496,5.85246 3.19033,1.986034 7.12014,1.986034 2.15506,0 4.14109,-0.591584 1.98604,-0.591585 3.61289,-1.753626 1.64799,-1.183169 2.7889,-2.894538 1.16204,-1.732498 1.62686,-3.972068 h 5.23975 q -0.59159,3.317099 -2.15506,5.936973 -1.56347,2.619875 -3.88755,4.458012 -2.32409,1.817014 -5.21863,2.767774 -2.87341,0.95076 -6.14825,0.95076 -5.53554,0 -9.84565,-2.70439 -4.31012,-2.704385 -6.7821,-7.690597 -2.47198,-4.986213 -2.47198,-11.83169 0,-6.845478 2.47198,-11.83169 2.47198,-4.986213 6.7821,-7.690599 4.31011,-2.704386 9.84565,-2.704386 3.27484,0 6.14825,0.950761 2.89454,0.95076 5.21863,2.788898 2.32408,1.81701 3.88755,4.436884 1.56347,2.598746 2.15506,5.936973 z"
       style="fill:#002864"
       id="path38" /><path
       d="m 194.18124,59.756812 v 43.270178 h -4.98621 V 59.756812 Z"
       style="fill:#002864"
       id="path40" /><path
       d="m 216.49237,103.70309 q -4.39462,0 -7.71172,-2.09167 -3.29597,-2.091678 -5.15524,-5.852465 -1.83814,-3.760787 -1.83814,-8.789256 0,-5.070724 1.83814,-8.852639 1.85927,-3.781915 5.15524,-5.873589 3.3171,-2.091674 7.71172,-2.091674 4.39463,0 7.6906,2.091674 3.3171,2.091674 5.15524,5.873589 1.85926,3.781915 1.85926,8.852639 0,5.028469 -1.85926,8.789256 -1.83814,3.760787 -5.15524,5.852465 -3.29597,2.09167 -7.6906,2.09167 z m 0,-4.47914 q 3.33823,0 5.49329,-1.71137 2.15506,-1.711369 3.19033,-4.500268 1.03527,-2.788898 1.03527,-6.042613 0,-3.253714 -1.03527,-6.063741 -1.03527,-2.810026 -3.19033,-4.542524 -2.15506,-1.732497 -5.49329,-1.732497 -3.33822,0 -5.49328,1.732497 -2.15506,1.732498 -3.19033,4.542524 -1.03527,2.810027 -1.03527,6.063741 0,3.253715 1.03527,6.042613 1.03527,2.788899 3.19033,4.500268 2.15506,1.71137 5.49328,1.71137 z"
       style="fill:#002864"
       id="path42" /><path
       d="M 259.25543,89.758598 V 70.574357 h 4.98621 v 32.452633 h -4.98621 v -5.493282 h -0.33805 q -1.14092,2.471982 -3.54951,4.204472 -2.40859,1.71137 -6.08487,1.71137 -3.04243,0 -5.40877,-1.33106 -2.36634,-1.3522 -3.71853,-4.056581 -1.3522,-2.725515 -1.3522,-6.866606 V 70.574357 h 4.98622 v 20.282898 q 0,3.549507 1.98603,5.662308 2.00716,2.112802 5.11298,2.112802 1.85927,0 3.78192,-0.950761 1.94377,-0.950761 3.25371,-2.915666 1.33107,-1.964906 1.33107,-5.00734 z"
       style="fill:#002864"
       id="path44" /><path
       d="m 285.62314,103.70309 q -4.05658,0 -7.1624,-2.04942 -3.10582,-2.070544 -4.85944,-5.831331 -1.75363,-3.781915 -1.75363,-8.937152 0,-5.11298 1.75363,-8.873767 1.75362,-3.760787 4.88057,-5.810205 3.12695,-2.049418 7.22578,-2.049418 3.1692,0 5.00734,1.056401 1.85927,1.035273 2.83116,2.366338 0.99301,1.309937 1.54234,2.155058 h 0.42256 V 59.756812 h 4.98621 v 43.270178 h -4.81718 v -4.986209 h -0.59159 q -0.54933,0.887376 -1.56347,2.239569 -1.01415,1.33107 -2.89454,2.38747 -1.88039,1.03527 -5.00734,1.03527 z m 0.6761,-4.47914 q 3.00017,0 5.07072,-1.563474 2.07055,-1.584601 3.14807,-4.373499 1.07753,-2.810027 1.07753,-6.486302 0,-3.634019 -1.0564,-6.359533 -1.0564,-2.746643 -3.12694,-4.26786 -2.07055,-1.542345 -5.11298,-1.542345 -3.16921,0 -5.28201,1.626857 -2.09167,1.60573 -3.14807,4.3735 -1.03528,2.746642 -1.03528,6.169381 0,3.464995 1.0564,6.296149 1.07753,2.810027 3.16921,4.47914 2.1128,1.647986 5.23975,1.647986 z"
       style="fill:#002864"
       id="path46" /></g></g><circle
   style="opacity:1;fill:#002864;fill-opacity:1;stroke:none;stroke-width:0.865527;stroke-miterlimit:2.1818;stroke-opacity:1"
   id="path850"
   cx="127.24"
   cy="48.73085"
   r="4.6789999" /><circle
   r="4.6789999"
   cy="75.364845"
   cx="67.405998"
   id="path850-9"
   style="opacity:1;fill:#002864;fill-opacity:1;stroke:none;stroke-width:0.865527;stroke-miterlimit:2.1818;stroke-opacity:1" /><circle
   style="opacity:1;fill:#002864;fill-opacity:1;stroke:none;stroke-width:0.865527;stroke-miterlimit:2.1818;stroke-opacity:1"
   id="path850-9-1"
   cx="58.693001"
   cy="30.11285"
   r="4.6789999" /></svg>
